<?xml version="1.0" encoding="utf-8"?>
<!-- Generator: Adobe Illustrator 19.2.1, SVG Export Plug-In . SVG Version: 6.00 Build 0)  -->
<svg version="1.1" id="Layer_1" xmlns="http://www.w3.org/2000/svg" xmlns:xlink="http://www.w3.org/1999/xlink" x="0px" y="0px"
	 viewBox="0 0 32 32" style="enable-background:new 0 0 32 32;" xml:space="preserve">
<style type="text/css">
	.st0{fill:url(#SVGID_1_);}
</style>
<linearGradient id="SVGID_1_" gradientUnits="userSpaceOnUse" x1="2" y1="16" x2="30" y2="16">
	<stop  offset="0" style="stop-color:#6F6D99"/>
	<stop  offset="0.2614" style="stop-color:#74729F"/>
	<stop  offset="0.6144" style="stop-color:#8481B0"/>
	<stop  offset="1" style="stop-color:#9C99CB"/>
	<stop  offset="1" style="stop-color:#000000"/>
</linearGradient>
<path class="st0" d="M4,10h24c1.1,0,2-0.9,2-2s-0.9-2-2-2H4C2.9,6,2,6.9,2,8S2.9,10,4,10z M28,14H4c-1.1,0-2,0.9-2,2s0.9,2,2,2h24
	c1.1,0,2-0.9,2-2S29.1,14,28,14z M28,22H4c-1.1,0-2,0.9-2,2s0.9,2,2,2h24c1.1,0,2-0.9,2-2S29.1,22,28,22z"/>
</svg>
